Coordinates
version=1
nRows=15
nColumns=19
inDegrees=yes

Units are S.I. units (second, meters, Newtons, ...)
If the header above contains a line with 'inDegrees', this indicates whether rotational values are in degrees (yes) or radians (no).

endheader
time	pelvis_tilt	pelvis_list	pelvis_rotation	pelvis_tx	pelvis_ty	pelvis_tz	hip_flexion_r	hip_adduction_r	hip_rotation_r	knee_angle_r	knee_angle_r_beta	ankle_angle_r	hip_flexion_l	hip_adduction_l	hip_rotation_l	knee_angle_l	knee_angle_l_beta	ankle_angle_l
     12.20666667	      0.37123183	     -4.24722504	     -7.92717365	      2.24290438	      1.03733920	      1.02933817	     27.51623752	      7.92327052	     -6.60222601	     25.40136521	      0.44333746	     -2.68463098	    -12.47015796	      1.60885836	     -9.53036051	     85.85635621	      1.49847610	    -18.25819530
     12.21333333	      1.03416718	     -5.29037930	     -8.44275496	      2.24147148	      1.03268894	      1.03053115	     26.10625450	      9.10260124	     -6.67741956	     26.37659116	      0.46035836	     -1.79192511	    -11.55401419	      0.08240512	    -10.24790823	     90.28786203	      1.57582047	    -17.58172433
     12.22000000	      1.65238231	     -6.30393339	     -8.95609593	      2.23960282	      1.02745481	      1.03158442	     24.96539782	     10.16258888	     -6.91231465	     28.11740078	      0.49074122	     -0.34280882	    -10.48688905	     -1.37995479	    -10.74884582	     94.67881679	      1.65245708	    -16.65909682
     12.22666667	      1.91597610	     -7.34855328	     -9.37367986	      2.23751662	      1.02161598	      1.03250519	     24.24728903	     11.22966283	     -7.22600582	     30.21812835	      0.52740583	      1.44591651	     -8.90432442	     -3.03060857	    -10.98828199	     99.07560867	      1.72919558	    -15.79052955
     12.23333333	      1.97759703	     -8.20331774	     -9.85364915	      2.23506575	      1.01543212	      1.03336426	     23.85265417	     12.12243181	     -7.38645983	     32.73854458	      0.57139540	      3.60443412	     -6.93517681	     -4.52841200	    -11.05749247	    103.34935254	      1.80378648	    -15.00317278
     12.24000000	      1.94513769	     -9.01289652	    -10.33348765	      2.23234558	      1.00922800	      1.03417052	     23.51447634	     12.98777735	     -7.39336796	     35.36152841	      0.61717510	      5.98880563	     -4.72344745	     -6.07349554	    -10.93960392	    107.45974284	      1.87552633	    -14.29840359
     12.24666667	      1.76057905	     -9.68388316	    -10.79403168	      2.22933065	      1.00313880	      1.03486735	     23.28390801	     13.73878989	     -7.22747182	     37.98605140	      0.66298167	      8.53214683	     -2.14135128	     -7.54851606	    -10.57289058	    111.37038362	      1.94377988	    -13.69905994
     12.25333333	      1.39807505	    -10.22524584	    -11.19048624	      2.22611979	      0.99729621	      1.03547936	     23.12560800	     14.38955467	     -6.92184833	     40.44138751	      0.70583537	     11.09838967	      0.85172249	     -8.98658502	     -9.92571394	    115.03505144	      2.00774040	    -13.21935715
     12.26000000	      1.07974355	    -10.64843228	    -11.55987810	      2.22292399	      0.99223212	      1.03601501	     22.72751690	     14.92366091	     -6.42533965	     42.61089865	      0.74370048	     13.65608916	      3.96618702	    -10.32277505	     -9.10067215	    118.29571396	      2.06464970	    -12.86165805
     12.26666667	      2.78764933	    -10.89333810	    -12.51624454	      2.22224622	      0.99158488	      1.03688916	     19.43624407	     15.10042235	     -4.75443675	     44.11735300	      0.76999307	     16.27238794	      4.10547647	    -10.97803557	     -9.55285028	    119.82874147	      2.09140608	    -12.70802535
     12.27333333	      6.18420876	    -10.97679017	    -13.66954357	      2.22346344	      0.99480593	      1.03786420	     13.69439253	     14.61302766	     -2.31298963	     44.81734818	      0.78221029	     18.80211667	      1.87374805	    -10.95240107	    -10.86379609	    119.93125922	      2.09319535	    -12.63337853
     12.28000000	      9.27845614	    -10.97216883	    -14.28131384	      2.22410208	      0.99822295	      1.03851477	      8.17789840	     13.68896470	     -0.40285135	     44.94267460	      0.78439765	     21.02155529	      0.36887597	    -10.91225232	    -11.53784975	    119.95398005	      2.09359190	    -12.55773868
     12.28666667	     11.74626782	    -10.57175023	    -14.53063932	      2.22396040	      1.00146281	      1.03911393	      3.38289445	     12.33328151	      1.14637598	     44.64828473	      0.77925957	     22.94265411	      0.03387917	    -10.64849884	    -11.70136496	    119.96281572	      2.09374611	    -12.27923990
     12.29333333	     13.46771144	     -9.76644292	    -14.52750633	      2.22326161	      1.00424320	      1.03971981	     -0.53521650	     10.65908867	      2.23868514	     44.04309922	      0.76869709	     24.54951811	      0.90453835	    -10.18814406	    -11.47214539	    119.96677289	      2.09381518	    -11.83696065
     12.30000000	     13.84324754	     -8.63791481	    -14.62821417	      2.22222104	      1.00623749	      1.04081317	     -3.00849821	      9.09136617	      3.38623795	     43.15844112	      0.75325690	     25.64684459	      3.47695379	     -9.81461286	    -11.14270224	    119.96845722	      2.09384458	    -11.30867833
